<?xml version="1.0" encoding="UTF-8"?>
<svg enable-background="new 0 0 512 512" version="1.1" viewBox="0 0 512 512" xml:space="preserve" xmlns="http://www.w3.org/2000/svg">
	<path d="m506.6 197.1-76.712-84.383c-3.928-4.317-9.498-6.788-15.342-6.788h-96.759v300.14h44.138c0-29.246 23.711-52.966 52.966-52.966s52.966 23.72 52.966 52.966h44.138v-195.01c-1e-3 -5.165-1.925-10.144-5.395-13.957" fill="#EE705C"/>
	<path d="m317.79 300.14h-317.79v-221.8c0-14.009 11.361-25.37 25.37-25.37h267.05c14.009 0 25.37 11.361 25.37 25.37v221.8z" fill="#FAC75A"/>
	<path d="m368.28 247.17h143.72v-36.122c0-5.155-1.924-10.134-5.394-13.948l-50.776-55.861h-87.552c-3.505 0-6.347 2.842-6.347 6.347v93.237c0 3.505 2.843 6.347 6.347 6.347" fill="#E6E6E6"/>
	<g fill="#5B5B5B">
		<path d="m467.86 406.07c0 29.255-23.711 52.966-52.966 52.966s-52.966-23.711-52.966-52.966 23.711-52.966 52.966-52.966 52.966 23.711 52.966 52.966"/>
		<path d="m150.07 406.07c0 29.255-23.711 52.966-52.966 52.966s-52.966-23.711-52.966-52.966 23.711-52.966 52.966-52.966 52.966 23.711 52.966 52.966"/>
	</g>
	<path d="M0,300.138v83.871c0,12.182,9.878,22.06,22.06,22.06h22.078c0-29.255,23.711-52.966,52.966-52.966   s52.966,23.711,52.966,52.966h167.724V300.138H0z" fill="#C64533"/>
	<g fill="#B2B2B2">
		<path d="m114.76 406.07c0 9.754-7.901 17.655-17.655 17.655s-17.655-7.901-17.655-17.655 7.901-17.655 17.655-17.655 17.655 7.9 17.655 17.655"/>
		<path d="m432.55 406.07c0 9.754-7.901 17.655-17.655 17.655s-17.655-7.901-17.655-17.655 7.901-17.655 17.655-17.655 17.655 7.9 17.655 17.655"/>
	</g>
	<path d="M512,300.138h-52.966c-4.882,0-8.828,3.946-8.828,8.828s3.946,8.828,8.828,8.828H512V300.138z" fill="#F4A29B"/>
	<g fill="#D8AC4E">
		<path d="M132.414,229.517c4.873,0,8.828-3.946,8.828-8.828s-3.955-8.828-8.828-8.828H0v17.655H132.414z"/>
		<path d="m97.103 185.38c4.873 0 8.828-3.946 8.828-8.828s-3.955-8.828-8.828-8.828h-97.103v17.655h97.103z"/>
	</g>
</svg>