<?xml version="1.0" encoding="UTF-8"?>
<svg enable-background="new 0 0 64 64" version="1.1" viewBox="0 0 64 64" xml:space="preserve" xmlns="http://www.w3.org/2000/svg">
<style type="text/css">
	.fandom_een{fill:#FF786E;}
	.fandom_twee{fill:#BE5652;}
	.fandom_drie{fill:#BE9148;}
	.fandom_vier{fill:#FFC865;}
	.fandom_vijf{fill:#018273;}
	.fandom_zes{fill:#00B3AA;}
	.fandom_veertien{fill:#EFEAE0;}
	.fandom_vijftien{fill:#3A3A3A;}
	.st0{fill:#6BC4D2;}
	.st1{fill:#508D9B;}
	.st2{fill:#8579A3;}
	.st3{fill:#685683;}
	.st4{fill:#AA9991;}
	.st5{fill:#666666;}
	.st6{fill:#4D4D4D;}
	.st7{fill:#CCCCCC;}
	.st8{fill:#808080;}
	.st9{fill:#644638;}
	.st10{fill:#4B322A;}
	.st11{fill:#FFFAFA;}
</style>

	
		<path class="fandom_zes" d="M32,7C18.193,7,7,18.193,7,32h50C57,18.193,45.807,7,32,7z"/>
		<path class="fandom_vijf" d="M32,57c13.807,0,25-11.193,25-25H7C7,45.807,18.193,57,32,57z"/>
	
	
		<path class="fandom_vier" d="m54.137 47.303c-0.788-2.771-0.842-5.919-2.156-8.396-0.977-1.841-3.934-2.871-6.663-3.552-0.65 0.445-2.94 1.957-5.17 2.784-0.838 0.311-1.484-0.754-0.831-1.365l2.148-2.274c1.868-4.733 2.2-10.213 1.158-15.254l-0.15-3e-3c-0.61-0.011-1.421-1.537-2.017-3.794-5.631-1.348-10.897-1.462-16.894-0.071-0.597 2.296-1.419 3.854-2.035 3.865l-0.433 8e-3c-1.041 5.039-0.709 10.518 1.159 15.249l-3.853 0.854c-2.729 0.682-5.686 1.711-6.663 3.552-1.314 2.477-1.368 5.626-2.156 8.396-0.282 0.992-0.083 2.06 0.588 2.843 9.046 10.562 24.975 12.886 36.64 5.746l1.276-7.559c0.19-0.857 1.417-0.845 1.59 0.016l0.726 4.938c1.129-0.963 2.182-2.013 3.147-3.14 0.671-0.784 0.871-1.851 0.589-2.843zm-22.278-13.759c-4.386-0.166-8.734-8.028-6.303-14.694 0.187-0.512 0.676-0.85 1.221-0.85h10.164c0.545 0 1.034 0.338 1.221 0.85 2.431 6.667-1.917 14.528-6.303 14.694z"/>
		<path class="fandom_drie" d="m45.312 35.352s-2.53 1.808-5.165 2.785c-0.838 0.311-1.484-0.754-0.831-1.365l2.148-2.274 3.848 0.854zm2.773 12.981-1.276 7.559c1.266-0.775 2.467-1.647 3.591-2.606l-0.726-4.938c-0.172-0.86-1.398-0.873-1.589-0.015zm-19.11-9.208c0.568-0.04 1.089-0.879 0.571-1.328-6.54-5.663-7.433-13.646-5.697-22.485l-0.287 0.066c-0.597 2.295-1.419 3.853-2.035 3.864l-0.433 8e-3c-1.041 5.039-0.709 10.518 1.159 15.249l-3.853 0.855c-2.729 0.682-5.686 1.711-6.663 3.552-1.314 2.477-1.368 5.626-2.156 8.396-0.282 0.992-0.083 2.06 0.588 2.843 3.887 4.538 10.209 8.648 18.223 9.651 0.205 0.022 0.407 0.044 0.608 0.065v-17.165c6e-3 -0.634-3.277-3.77-3.049-4.168 0.437-0.766 2.658 0.622 3.024 0.597z"/>
		<path class="fandom_vijftien" d="m40.456 15.448c-5.559-1.331-11.19-1.471-16.894-0.071 0.459-1.739 0.78-3.897 0.694-5.637 1.748-0.33 3.512-0.547 5.28-0.652l1.408-2.438c0.469-0.813 1.642-0.813 2.111 0l1.408 2.438c1.769 0.105 3.533 0.322 5.28 0.652-0.082 1.657 0.225 3.859 0.713 5.708zm-8.456-12.144c-4.787-0.06-9.579 1.491-10.672 4.538 0.073-1e-3 2.184-0.045 2.255-0.029 1.166-1.609 4.792-2.476 8.417-2.44 3.625-0.035 7.251 0.832 8.417 2.441 0.07-0.016 2.182 0.028 2.255 0.029-1.093-3.048-5.885-4.599-10.672-4.539z"/>
		<path class="fandom_twee" d="m43.648 7.939c0.7-0.508 1.81 1.605 2.481 4.727 0.67 3.115 0.647 6.052-0.053 6.56s-1.814-1.603-2.484-4.717c-0.671-3.121-0.644-6.061 0.056-6.57zm-23.296 0c-0.7-0.508-1.81 1.605-2.481 4.727-0.67 3.115-0.647 6.052 0.053 6.56s1.814-1.603 2.484-4.717c0.671-3.121 0.644-6.061-0.056-6.57z"/>
		<path class="fandom_een" d="m45.848 19.301-3.375-0.059c-0.696-0.012-1.654-1.999-2.255-4.793-0.658-3.058-0.717-6.663 0.283-6.645l3.375 0.059c-1-0.018-0.941 3.587-0.283 6.645 0.6 2.795 1.559 4.781 2.255 4.793zm-22.349-11.496-3.375 0.059c1-0.018 0.941 3.587 0.283 6.645-0.601 2.794-1.559 4.78-2.255 4.793l3.375-0.059c0.696-0.012 1.654-1.999 2.255-4.793 0.658-3.058 0.717-6.663-0.283-6.645z"/>
		<path class="fandom_veertien" d="m32.856 59.989v-14.396c0-1.276-1.856-1.249-1.856 0v14.396c0.687 0.026 1.952-3e-3 1.856 0z"/>
	

</svg>