<?xml version="1.0" encoding="UTF-8"?>
<svg enable-background="new 0 0 505 505" version="1.1" viewBox="0 0 505 505" xml:space="preserve" xmlns="http://www.w3.org/2000/svg">
<polygon points="34.582 372.6 254.58 501 254.58 260.6 34.582 132.6" fill="#F0B551"/>
<polygon points="254.58 501 474.58 372.6 474.58 132.6 254.58 260.6" fill="#EDC654"/>
<polygon points="472.98 133 256.18 4.2 34.982 132.6 256.18 260.6" fill="#EFDC81"/>
<path d="m252.58 505c-0.8 0-1.2 0-2-0.4l-220-128.4c-1.2-0.8-2-2-2-3.6v-240c0-1.6 0.8-2.8 2-3.6s2.8-0.8 4 0l220 128.4c1.2 0.8 2 2 2 3.6v240.4c0 1.6-0.8 2.8-2 3.6h-2zm-216-134.4 212 123.6v-231.2l-212-123.6v231.2z"/>
<path d="m252.58 505c-1.2 0-2.8-0.8-3.6-2-1.2-2-0.4-4.4 1.6-5.6l218-127.2v-231.2l-212.8 124.8c-2 1.2-4.4 0.4-5.6-1.6s-0.4-4.4 1.6-5.6l218.8-128.4c1.2-0.8 2.8-0.8 4 0s2 2 2 3.6v240.8c0 1.6-0.8 2.8-2 3.6l-220 128.4c-0.4 0.4-1.2 0.4-2 0.4z"/>
<path d="m32.582 136.6c-1.2 0-2.8-0.8-3.6-2-1.2-2-0.4-4.4 1.6-5.6l223.6-128.4c1.2-0.8 2.8-0.8 4 0l216.4 128.4c2 1.2 2.4 3.6 1.6 5.6-1.2 2-3.6 2.4-5.6 1.6l-214.4-127.2-221.6 127.2c-0.8 0-1.2 0.4-2 0.4z"/>
<path d="m343.78 187.4c-0.8 0-1.2 0-2-0.4l-198-114.8c-2-1.2-2.4-3.6-1.6-5.6 1.2-2 3.6-2.4 5.6-1.6l198 114.8c2 1.2 2.4 3.6 1.6 5.6-0.8 1.2-2.4 2-3.6 2z"/>
</svg>